<?xml version="1.0" encoding="utf-8" standalone="no"?>
<!DOCTYPE svg PUBLIC "-//W3C//DTD SVG 1.1//EN"
  "http://www.w3.org/Graphics/SVG/1.1/DTD/svg11.dtd">
<svg xmlns:xlink="http://www.w3.org/1999/xlink" width="162.708438pt" height="255.853906pt" viewBox="0 0 162.708438 255.853906" xmlns="http://www.w3.org/2000/svg" version="1.1">
 <metadata>
  <rdf:RDF xmlns:dc="http://purl.org/dc/elements/1.1/" xmlns:cc="http://creativecommons.org/ns#" xmlns:rdf="http://www.w3.org/1999/02/22-rdf-syntax-ns#">
   <cc:Work>
    <dc:type rdf:resource="http://purl.org/dc/dcmitype/StillImage"/>
    <dc:date>2023-10-31T12:23:48.687467</dc:date>
    <dc:format>image/svg+xml</dc:format>
    <dc:creator>
     <cc:Agent>
      <dc:title>Matplotlib v3.8.0, https://matplotlib.org/</dc:title>
     </cc:Agent>
    </dc:creator>
   </cc:Work>
  </rdf:RDF>
 </metadata>
 <defs>
  <style type="text/css">*{stroke-linejoin: round; stroke-linecap: butt}</style>
 </defs>
 <g id="figure_1">
  <g id="patch_1">
   <path d="M 0 255.853906 
L 162.708438 255.853906 
L 162.708438 0 
L 0 0 
z
" style="fill: #ffffff"/>
  </g>
  <g id="axes_1">
   <g id="patch_2">
    <path d="M 43.908438 228.96 
L 155.508438 228.96 
L 155.508438 7.2 
L 43.908438 7.2 
z
" style="fill: #eaeaf2"/>
   </g>
   <g id="matplotlib.axis_1">
    <g id="xtick_1">
     <g id="text_1">
      <!-- March -->
      <g style="fill: #262626" transform="translate(56.52875 246.333594) scale(0.11 -0.11)">
       <defs>
        <path id="ArialMT-4d" d="M 475 0 
L 475 4581 
L 1388 4581 
L 2472 1338 
Q 2622 884 2691 659 
Q 2769 909 2934 1394 
L 4031 4581 
L 4847 4581 
L 4847 0 
L 4263 0 
L 4263 3834 
L 2931 0 
L 2384 0 
L 1059 3900 
L 1059 0 
L 475 0 
z
" transform="scale(0.015625)"/>
        <path id="ArialMT-61" d="M 2588 409 
Q 2275 144 1986 34 
Q 1697 -75 1366 -75 
Q 819 -75 525 192 
Q 231 459 231 875 
Q 231 1119 342 1320 
Q 453 1522 633 1644 
Q 813 1766 1038 1828 
Q 1203 1872 1538 1913 
Q 2219 1994 2541 2106 
Q 2544 2222 2544 2253 
Q 2544 2597 2384 2738 
Q 2169 2928 1744 2928 
Q 1347 2928 1158 2789 
Q 969 2650 878 2297 
L 328 2372 
Q 403 2725 575 2942 
Q 747 3159 1072 3276 
Q 1397 3394 1825 3394 
Q 2250 3394 2515 3294 
Q 2781 3194 2906 3042 
Q 3031 2891 3081 2659 
Q 3109 2516 3109 2141 
L 3109 1391 
Q 3109 606 3145 398 
Q 3181 191 3288 0 
L 2700 0 
Q 2613 175 2588 409 
z
M 2541 1666 
Q 2234 1541 1622 1453 
Q 1275 1403 1131 1340 
Q 988 1278 909 1158 
Q 831 1038 831 891 
Q 831 666 1001 516 
Q 1172 366 1500 366 
Q 1825 366 2078 508 
Q 2331 650 2450 897 
Q 2541 1088 2541 1459 
L 2541 1666 
z
" transform="scale(0.015625)"/>
        <path id="ArialMT-72" d="M 416 0 
L 416 3319 
L 922 3319 
L 922 2816 
Q 1116 3169 1280 3281 
Q 1444 3394 1641 3394 
Q 1925 3394 2219 3213 
L 2025 2691 
Q 1819 2813 1613 2813 
Q 1428 2813 1281 2702 
Q 1134 2591 1072 2394 
Q 978 2094 978 1738 
L 978 0 
L 416 0 
z
" transform="scale(0.015625)"/>
        <path id="ArialMT-63" d="M 2588 1216 
L 3141 1144 
Q 3050 572 2676 248 
Q 2303 -75 1759 -75 
Q 1078 -75 664 370 
Q 250 816 250 1647 
Q 250 2184 428 2587 
Q 606 2991 970 3192 
Q 1334 3394 1763 3394 
Q 2303 3394 2647 3120 
Q 2991 2847 3088 2344 
L 2541 2259 
Q 2463 2594 2264 2762 
Q 2066 2931 1784 2931 
Q 1359 2931 1093 2626 
Q 828 2322 828 1663 
Q 828 994 1084 691 
Q 1341 388 1753 388 
Q 2084 388 2306 591 
Q 2528 794 2588 1216 
z
" transform="scale(0.015625)"/>
        <path id="ArialMT-68" d="M 422 0 
L 422 4581 
L 984 4581 
L 984 2938 
Q 1378 3394 1978 3394 
Q 2347 3394 2619 3248 
Q 2891 3103 3008 2847 
Q 3125 2591 3125 2103 
L 3125 0 
L 2563 0 
L 2563 2103 
Q 2563 2525 2380 2717 
Q 2197 2909 1863 2909 
Q 1613 2909 1392 2779 
Q 1172 2650 1078 2428 
Q 984 2206 984 1816 
L 984 0 
L 422 0 
z
" transform="scale(0.015625)"/>
       </defs>
       <use xlink:href="#ArialMT-4d"/>
       <use xlink:href="#ArialMT-61" x="83.300781"/>
       <use xlink:href="#ArialMT-72" x="138.916016"/>
       <use xlink:href="#ArialMT-63" x="172.216797"/>
       <use xlink:href="#ArialMT-68" x="222.216797"/>
      </g>
     </g>
    </g>
    <g id="xtick_2">
     <g id="text_2">
      <!-- September -->
      <g style="fill: #262626" transform="translate(100.706563 246.467656) scale(0.11 -0.11)">
       <defs>
        <path id="ArialMT-53" d="M 288 1472 
L 859 1522 
Q 900 1178 1048 958 
Q 1197 738 1509 602 
Q 1822 466 2213 466 
Q 2559 466 2825 569 
Q 3091 672 3220 851 
Q 3350 1031 3350 1244 
Q 3350 1459 3225 1620 
Q 3100 1781 2813 1891 
Q 2628 1963 1997 2114 
Q 1366 2266 1113 2400 
Q 784 2572 623 2826 
Q 463 3081 463 3397 
Q 463 3744 659 4045 
Q 856 4347 1234 4503 
Q 1613 4659 2075 4659 
Q 2584 4659 2973 4495 
Q 3363 4331 3572 4012 
Q 3781 3694 3797 3291 
L 3216 3247 
Q 3169 3681 2898 3903 
Q 2628 4125 2100 4125 
Q 1550 4125 1298 3923 
Q 1047 3722 1047 3438 
Q 1047 3191 1225 3031 
Q 1400 2872 2139 2705 
Q 2878 2538 3153 2413 
Q 3553 2228 3743 1945 
Q 3934 1663 3934 1294 
Q 3934 928 3725 604 
Q 3516 281 3123 101 
Q 2731 -78 2241 -78 
Q 1619 -78 1198 103 
Q 778 284 539 648 
Q 300 1013 288 1472 
z
" transform="scale(0.015625)"/>
        <path id="ArialMT-65" d="M 2694 1069 
L 3275 997 
Q 3138 488 2766 206 
Q 2394 -75 1816 -75 
Q 1088 -75 661 373 
Q 234 822 234 1631 
Q 234 2469 665 2931 
Q 1097 3394 1784 3394 
Q 2450 3394 2872 2941 
Q 3294 2488 3294 1666 
Q 3294 1616 3291 1516 
L 816 1516 
Q 847 969 1125 678 
Q 1403 388 1819 388 
Q 2128 388 2347 550 
Q 2566 713 2694 1069 
z
M 847 1978 
L 2700 1978 
Q 2663 2397 2488 2606 
Q 2219 2931 1791 2931 
Q 1403 2931 1139 2672 
Q 875 2413 847 1978 
z
" transform="scale(0.015625)"/>
        <path id="ArialMT-70" d="M 422 -1272 
L 422 3319 
L 934 3319 
L 934 2888 
Q 1116 3141 1344 3267 
Q 1572 3394 1897 3394 
Q 2322 3394 2647 3175 
Q 2972 2956 3137 2557 
Q 3303 2159 3303 1684 
Q 3303 1175 3120 767 
Q 2938 359 2589 142 
Q 2241 -75 1856 -75 
Q 1575 -75 1351 44 
Q 1128 163 984 344 
L 984 -1272 
L 422 -1272 
z
M 931 1641 
Q 931 1000 1190 694 
Q 1450 388 1819 388 
Q 2194 388 2461 705 
Q 2728 1022 2728 1688 
Q 2728 2322 2467 2637 
Q 2206 2953 1844 2953 
Q 1484 2953 1207 2617 
Q 931 2281 931 1641 
z
" transform="scale(0.015625)"/>
        <path id="ArialMT-74" d="M 1650 503 
L 1731 6 
Q 1494 -44 1306 -44 
Q 1000 -44 831 53 
Q 663 150 594 308 
Q 525 466 525 972 
L 525 2881 
L 113 2881 
L 113 3319 
L 525 3319 
L 525 4141 
L 1084 4478 
L 1084 3319 
L 1650 3319 
L 1650 2881 
L 1084 2881 
L 1084 941 
Q 1084 700 1114 631 
Q 1144 563 1211 522 
Q 1278 481 1403 481 
Q 1497 481 1650 503 
z
" transform="scale(0.015625)"/>
        <path id="ArialMT-6d" d="M 422 0 
L 422 3319 
L 925 3319 
L 925 2853 
Q 1081 3097 1340 3245 
Q 1600 3394 1931 3394 
Q 2300 3394 2536 3241 
Q 2772 3088 2869 2813 
Q 3263 3394 3894 3394 
Q 4388 3394 4653 3120 
Q 4919 2847 4919 2278 
L 4919 0 
L 4359 0 
L 4359 2091 
Q 4359 2428 4304 2576 
Q 4250 2725 4106 2815 
Q 3963 2906 3769 2906 
Q 3419 2906 3187 2673 
Q 2956 2441 2956 1928 
L 2956 0 
L 2394 0 
L 2394 2156 
Q 2394 2531 2256 2718 
Q 2119 2906 1806 2906 
Q 1569 2906 1367 2781 
Q 1166 2656 1075 2415 
Q 984 2175 984 1722 
L 984 0 
L 422 0 
z
" transform="scale(0.015625)"/>
        <path id="ArialMT-62" d="M 941 0 
L 419 0 
L 419 4581 
L 981 4581 
L 981 2947 
Q 1338 3394 1891 3394 
Q 2197 3394 2470 3270 
Q 2744 3147 2920 2923 
Q 3097 2700 3197 2384 
Q 3297 2069 3297 1709 
Q 3297 856 2875 390 
Q 2453 -75 1863 -75 
Q 1275 -75 941 416 
L 941 0 
z
M 934 1684 
Q 934 1088 1097 822 
Q 1363 388 1816 388 
Q 2184 388 2453 708 
Q 2722 1028 2722 1663 
Q 2722 2313 2464 2622 
Q 2206 2931 1841 2931 
Q 1472 2931 1203 2611 
Q 934 2291 934 1684 
z
" transform="scale(0.015625)"/>
       </defs>
       <use xlink:href="#ArialMT-53"/>
       <use xlink:href="#ArialMT-65" x="66.699219"/>
       <use xlink:href="#ArialMT-70" x="122.314453"/>
       <use xlink:href="#ArialMT-74" x="177.929688"/>
       <use xlink:href="#ArialMT-65" x="205.712891"/>
       <use xlink:href="#ArialMT-6d" x="261.328125"/>
       <use xlink:href="#ArialMT-62" x="344.628906"/>
       <use xlink:href="#ArialMT-65" x="400.244141"/>
       <use xlink:href="#ArialMT-72" x="455.859375"/>
      </g>
     </g>
    </g>
   </g>
   <g id="matplotlib.axis_2">
    <g id="ytick_1">
     <g id="line2d_1">
      <path d="M 43.908438 211.760739 
L 155.508438 211.760739 
" clip-path="url(#p66156e7666)" style="fill: none; stroke: #ffffff; stroke-linecap: round"/>
     </g>
     <g id="text_3">
      <!-- 4 -->
      <g style="fill: #262626" transform="translate(28.291406 215.697536) scale(0.11 -0.11)">
       <defs>
        <path id="ArialMT-34" d="M 2069 0 
L 2069 1097 
L 81 1097 
L 81 1613 
L 2172 4581 
L 2631 4581 
L 2631 1613 
L 3250 1613 
L 3250 1097 
L 2631 1097 
L 2631 0 
L 2069 0 
z
M 2069 1613 
L 2069 3678 
L 634 1613 
L 2069 1613 
z
" transform="scale(0.015625)"/>
       </defs>
       <use xlink:href="#ArialMT-34"/>
      </g>
     </g>
    </g>
    <g id="ytick_2">
     <g id="line2d_2">
      <path d="M 43.908438 178.983294 
L 155.508438 178.983294 
" clip-path="url(#p66156e7666)" style="fill: none; stroke: #ffffff; stroke-linecap: round"/>
     </g>
     <g id="text_4">
      <!-- 6 -->
      <g style="fill: #262626" transform="translate(28.291406 182.920091) scale(0.11 -0.11)">
       <defs>
        <path id="ArialMT-36" d="M 3184 3459 
L 2625 3416 
Q 2550 3747 2413 3897 
Q 2184 4138 1850 4138 
Q 1581 4138 1378 3988 
Q 1113 3794 959 3422 
Q 806 3050 800 2363 
Q 1003 2672 1297 2822 
Q 1591 2972 1913 2972 
Q 2475 2972 2870 2558 
Q 3266 2144 3266 1488 
Q 3266 1056 3080 686 
Q 2894 316 2569 119 
Q 2244 -78 1831 -78 
Q 1128 -78 684 439 
Q 241 956 241 2144 
Q 241 3472 731 4075 
Q 1159 4600 1884 4600 
Q 2425 4600 2770 4297 
Q 3116 3994 3184 3459 
z
M 888 1484 
Q 888 1194 1011 928 
Q 1134 663 1356 523 
Q 1578 384 1822 384 
Q 2178 384 2434 671 
Q 2691 959 2691 1453 
Q 2691 1928 2437 2201 
Q 2184 2475 1800 2475 
Q 1419 2475 1153 2201 
Q 888 1928 888 1484 
z
" transform="scale(0.015625)"/>
       </defs>
       <use xlink:href="#ArialMT-36"/>
      </g>
     </g>
    </g>
    <g id="ytick_3">
     <g id="line2d_3">
      <path d="M 43.908438 146.20585 
L 155.508438 146.20585 
" clip-path="url(#p66156e7666)" style="fill: none; stroke: #ffffff; stroke-linecap: round"/>
     </g>
     <g id="text_5">
      <!-- 8 -->
      <g style="fill: #262626" transform="translate(28.291406 150.142646) scale(0.11 -0.11)">
       <defs>
        <path id="ArialMT-38" d="M 1131 2484 
Q 781 2613 612 2850 
Q 444 3088 444 3419 
Q 444 3919 803 4259 
Q 1163 4600 1759 4600 
Q 2359 4600 2725 4251 
Q 3091 3903 3091 3403 
Q 3091 3084 2923 2848 
Q 2756 2613 2416 2484 
Q 2838 2347 3058 2040 
Q 3278 1734 3278 1309 
Q 3278 722 2862 322 
Q 2447 -78 1769 -78 
Q 1091 -78 675 323 
Q 259 725 259 1325 
Q 259 1772 486 2073 
Q 713 2375 1131 2484 
z
M 1019 3438 
Q 1019 3113 1228 2906 
Q 1438 2700 1772 2700 
Q 2097 2700 2305 2904 
Q 2513 3109 2513 3406 
Q 2513 3716 2298 3927 
Q 2084 4138 1766 4138 
Q 1444 4138 1231 3931 
Q 1019 3725 1019 3438 
z
M 838 1322 
Q 838 1081 952 856 
Q 1066 631 1291 507 
Q 1516 384 1775 384 
Q 2178 384 2440 643 
Q 2703 903 2703 1303 
Q 2703 1709 2433 1975 
Q 2163 2241 1756 2241 
Q 1359 2241 1098 1978 
Q 838 1716 838 1322 
z
" transform="scale(0.015625)"/>
       </defs>
       <use xlink:href="#ArialMT-38"/>
      </g>
     </g>
    </g>
    <g id="ytick_4">
     <g id="line2d_4">
      <path d="M 43.908438 113.428405 
L 155.508438 113.428405 
" clip-path="url(#p66156e7666)" style="fill: none; stroke: #ffffff; stroke-linecap: round"/>
     </g>
     <g id="text_6">
      <!-- 10 -->
      <g style="fill: #262626" transform="translate(22.174375 117.365202) scale(0.11 -0.11)">
       <defs>
        <path id="ArialMT-31" d="M 2384 0 
L 1822 0 
L 1822 3584 
Q 1619 3391 1289 3197 
Q 959 3003 697 2906 
L 697 3450 
Q 1169 3672 1522 3987 
Q 1875 4303 2022 4600 
L 2384 4600 
L 2384 0 
z
" transform="scale(0.015625)"/>
        <path id="ArialMT-30" d="M 266 2259 
Q 266 3072 433 3567 
Q 600 4063 929 4331 
Q 1259 4600 1759 4600 
Q 2128 4600 2406 4451 
Q 2684 4303 2865 4023 
Q 3047 3744 3150 3342 
Q 3253 2941 3253 2259 
Q 3253 1453 3087 958 
Q 2922 463 2592 192 
Q 2263 -78 1759 -78 
Q 1097 -78 719 397 
Q 266 969 266 2259 
z
M 844 2259 
Q 844 1131 1108 757 
Q 1372 384 1759 384 
Q 2147 384 2411 759 
Q 2675 1134 2675 2259 
Q 2675 3391 2411 3762 
Q 2147 4134 1753 4134 
Q 1366 4134 1134 3806 
Q 844 3388 844 2259 
z
" transform="scale(0.015625)"/>
       </defs>
       <use xlink:href="#ArialMT-31"/>
       <use xlink:href="#ArialMT-30" x="55.615234"/>
      </g>
     </g>
    </g>
    <g id="ytick_5">
     <g id="line2d_5">
      <path d="M 43.908438 80.65096 
L 155.508438 80.65096 
" clip-path="url(#p66156e7666)" style="fill: none; stroke: #ffffff; stroke-linecap: round"/>
     </g>
     <g id="text_7">
      <!-- 12 -->
      <g style="fill: #262626" transform="translate(22.174375 84.587757) scale(0.11 -0.11)">
       <defs>
        <path id="ArialMT-32" d="M 3222 541 
L 3222 0 
L 194 0 
Q 188 203 259 391 
Q 375 700 629 1000 
Q 884 1300 1366 1694 
Q 2113 2306 2375 2664 
Q 2638 3022 2638 3341 
Q 2638 3675 2398 3904 
Q 2159 4134 1775 4134 
Q 1369 4134 1125 3890 
Q 881 3647 878 3216 
L 300 3275 
Q 359 3922 746 4261 
Q 1134 4600 1788 4600 
Q 2447 4600 2831 4234 
Q 3216 3869 3216 3328 
Q 3216 3053 3103 2787 
Q 2991 2522 2730 2228 
Q 2469 1934 1863 1422 
Q 1356 997 1212 845 
Q 1069 694 975 541 
L 3222 541 
z
" transform="scale(0.015625)"/>
       </defs>
       <use xlink:href="#ArialMT-31"/>
       <use xlink:href="#ArialMT-32" x="55.615234"/>
      </g>
     </g>
    </g>
    <g id="ytick_6">
     <g id="line2d_6">
      <path d="M 43.908438 47.873515 
L 155.508438 47.873515 
" clip-path="url(#p66156e7666)" style="fill: none; stroke: #ffffff; stroke-linecap: round"/>
     </g>
     <g id="text_8">
      <!-- 14 -->
      <g style="fill: #262626" transform="translate(22.174375 51.810312) scale(0.11 -0.11)">
       <use xlink:href="#ArialMT-31"/>
       <use xlink:href="#ArialMT-34" x="55.615234"/>
      </g>
     </g>
    </g>
    <g id="ytick_7">
     <g id="line2d_7">
      <path d="M 43.908438 15.096071 
L 155.508438 15.096071 
" clip-path="url(#p66156e7666)" style="fill: none; stroke: #ffffff; stroke-linecap: round"/>
     </g>
     <g id="text_9">
      <!-- 16 -->
      <g style="fill: #262626" transform="translate(22.174375 19.032867) scale(0.11 -0.11)">
       <use xlink:href="#ArialMT-31"/>
       <use xlink:href="#ArialMT-36" x="55.615234"/>
      </g>
     </g>
    </g>
    <g id="text_10">
     <!-- Extent -->
     <g style="fill: #262626" transform="translate(15.789375 135.089062) rotate(-90) scale(0.12 -0.12)">
      <defs>
       <path id="ArialMT-45" d="M 506 0 
L 506 4581 
L 3819 4581 
L 3819 4041 
L 1113 4041 
L 1113 2638 
L 3647 2638 
L 3647 2100 
L 1113 2100 
L 1113 541 
L 3925 541 
L 3925 0 
L 506 0 
z
" transform="scale(0.015625)"/>
       <path id="ArialMT-78" d="M 47 0 
L 1259 1725 
L 138 3319 
L 841 3319 
L 1350 2541 
Q 1494 2319 1581 2169 
Q 1719 2375 1834 2534 
L 2394 3319 
L 3066 3319 
L 1919 1756 
L 3153 0 
L 2463 0 
L 1781 1031 
L 1600 1309 
L 728 0 
L 47 0 
z
" transform="scale(0.015625)"/>
       <path id="ArialMT-6e" d="M 422 0 
L 422 3319 
L 928 3319 
L 928 2847 
Q 1294 3394 1984 3394 
Q 2284 3394 2536 3286 
Q 2788 3178 2913 3003 
Q 3038 2828 3088 2588 
Q 3119 2431 3119 2041 
L 3119 0 
L 2556 0 
L 2556 2019 
Q 2556 2363 2490 2533 
Q 2425 2703 2258 2804 
Q 2091 2906 1866 2906 
Q 1506 2906 1245 2678 
Q 984 2450 984 1813 
L 984 0 
L 422 0 
z
" transform="scale(0.015625)"/>
      </defs>
      <use xlink:href="#ArialMT-45"/>
      <use xlink:href="#ArialMT-78" x="66.699219"/>
      <use xlink:href="#ArialMT-74" x="116.699219"/>
      <use xlink:href="#ArialMT-65" x="144.482422"/>
      <use xlink:href="#ArialMT-6e" x="200.097656"/>
      <use xlink:href="#ArialMT-74" x="255.712891"/>
     </g>
    </g>
   </g>
   <g id="patch_3">
    <path d="M 43.908438 228.96 
L 43.908438 7.2 
" style="fill: none; stroke: #ffffff; stroke-width: 1.25; stroke-linejoin: miter; stroke-linecap: square"/>
   </g>
   <g id="patch_4">
    <path d="M 155.508438 228.96 
L 155.508438 7.2 
" style="fill: none; stroke: #ffffff; stroke-width: 1.25; stroke-linejoin: miter; stroke-linecap: square"/>
   </g>
   <g id="patch_5">
    <path d="M 43.908438 228.96 
L 155.508438 228.96 
" style="fill: none; stroke: #ffffff; stroke-width: 1.25; stroke-linejoin: miter; stroke-linecap: square"/>
   </g>
   <g id="patch_6">
    <path d="M 43.908438 7.2 
L 155.508438 7.2 
" style="fill: none; stroke: #ffffff; stroke-width: 1.25; stroke-linejoin: miter; stroke-linecap: square"/>
   </g>
   <g id="PathCollection_1">
    <defs>
     <path id="C0_0_30c47ec124" d="M 0 2.5 
C 0.663008 2.5 1.29895 2.236584 1.767767 1.767767 
C 2.236584 1.29895 2.5 0.663008 2.5 -0 
C 2.5 -0.663008 2.236584 -1.29895 1.767767 -1.767767 
C 1.29895 -2.236584 0.663008 -2.5 0 -2.5 
C -0.663008 -2.5 -1.29895 -2.236584 -1.767767 -1.767767 
C -2.236584 -1.29895 -2.5 -0.663008 -2.5 0 
C -2.5 0.663008 -2.236584 1.29895 -1.767767 1.767767 
C -1.29895 2.236584 -0.663008 2.5 0 2.5 
z
"/>
    </defs>
    <g clip-path="url(#p66156e7666)">
     <use xlink:href="#C0_0_30c47ec124" x="76.394744" y="24.547605" style="fill: #4c72b0"/>
    </g>
    <g clip-path="url(#p66156e7666)">
     <use xlink:href="#C0_0_30c47ec124" x="72.493666" y="17.28" style="fill: #4c72b0"/>
    </g>
    <g clip-path="url(#p66156e7666)">
     <use xlink:href="#C0_0_30c47ec124" x="67.319534" y="24.66497" style="fill: #4c72b0"/>
    </g>
    <g clip-path="url(#p66156e7666)">
     <use xlink:href="#C0_0_30c47ec124" x="75.005996" y="23.599703" style="fill: #4c72b0"/>
    </g>
    <g clip-path="url(#p66156e7666)">
     <use xlink:href="#C0_0_30c47ec124" x="72.960544" y="18.158118" style="fill: #4c72b0"/>
    </g>
    <g clip-path="url(#p66156e7666)">
     <use xlink:href="#C0_0_30c47ec124" x="70.781489" y="22.411785" style="fill: #4c72b0"/>
    </g>
    <g clip-path="url(#p66156e7666)">
     <use xlink:href="#C0_0_30c47ec124" x="75.395457" y="27.221082" style="fill: #4c72b0"/>
    </g>
    <g clip-path="url(#p66156e7666)">
     <use xlink:href="#C0_0_30c47ec124" x="68.180411" y="29.472152" style="fill: #4c72b0"/>
    </g>
    <g clip-path="url(#p66156e7666)">
     <use xlink:href="#C0_0_30c47ec124" x="75.575775" y="23.822801" style="fill: #4c72b0"/>
    </g>
    <g clip-path="url(#p66156e7666)">
     <use xlink:href="#C0_0_30c47ec124" x="67.08005" y="21.682751" style="fill: #4c72b0"/>
    </g>
    <g clip-path="url(#p66156e7666)">
     <use xlink:href="#C0_0_30c47ec124" x="71.827888" y="24.967368" style="fill: #4c72b0"/>
    </g>
    <g clip-path="url(#p66156e7666)">
     <use xlink:href="#C0_0_30c47ec124" x="71.741299" y="27.799974" style="fill: #4c72b0"/>
    </g>
    <g clip-path="url(#p66156e7666)">
     <use xlink:href="#C0_0_30c47ec124" x="70.648091" y="23.022926" style="fill: #4c72b0"/>
    </g>
    <g clip-path="url(#p66156e7666)">
     <use xlink:href="#C0_0_30c47ec124" x="67.560004" y="25.766715" style="fill: #4c72b0"/>
    </g>
    <g clip-path="url(#p66156e7666)">
     <use xlink:href="#C0_0_30c47ec124" x="74.020497" y="23.537849" style="fill: #4c72b0"/>
    </g>
    <g clip-path="url(#p66156e7666)">
     <use xlink:href="#C0_0_30c47ec124" x="72.457746" y="31.606387" style="fill: #4c72b0"/>
    </g>
    <g clip-path="url(#p66156e7666)">
     <use xlink:href="#C0_0_30c47ec124" x="75.740612" y="36.620807" style="fill: #4c72b0"/>
    </g>
    <g clip-path="url(#p66156e7666)">
     <use xlink:href="#C0_0_30c47ec124" x="71.698851" y="40.974392" style="fill: #4c72b0"/>
    </g>
    <g clip-path="url(#p66156e7666)">
     <use xlink:href="#C0_0_30c47ec124" x="73.974065" y="38.989242" style="fill: #4c72b0"/>
    </g>
    <g clip-path="url(#p66156e7666)">
     <use xlink:href="#C0_0_30c47ec124" x="77.132994" y="28.552798" style="fill: #4c72b0"/>
    </g>
    <g clip-path="url(#p66156e7666)">
     <use xlink:href="#C0_0_30c47ec124" x="71.501205" y="31.753357" style="fill: #4c72b0"/>
    </g>
    <g clip-path="url(#p66156e7666)">
     <use xlink:href="#C0_0_30c47ec124" x="67.214624" y="29.244296" style="fill: #4c72b0"/>
    </g>
    <g clip-path="url(#p66156e7666)">
     <use xlink:href="#C0_0_30c47ec124" x="69.085356" y="38.916814" style="fill: #4c72b0"/>
    </g>
    <g clip-path="url(#p66156e7666)">
     <use xlink:href="#C0_0_30c47ec124" x="74.621167" y="28.268374" style="fill: #4c72b0"/>
    </g>
    <g clip-path="url(#p66156e7666)">
     <use xlink:href="#C0_0_30c47ec124" x="73.160895" y="30.959825" style="fill: #4c72b0"/>
    </g>
    <g clip-path="url(#p66156e7666)">
     <use xlink:href="#C0_0_30c47ec124" x="73.567087" y="35.458794" style="fill: #4c72b0"/>
    </g>
    <g clip-path="url(#p66156e7666)">
     <use xlink:href="#C0_0_30c47ec124" x="75.305061" y="41.801229" style="fill: #4c72b0"/>
    </g>
    <g clip-path="url(#p66156e7666)">
     <use xlink:href="#C0_0_30c47ec124" x="70.209768" y="41.319084" style="fill: #4c72b0"/>
    </g>
    <g clip-path="url(#p66156e7666)">
     <use xlink:href="#C0_0_30c47ec124" x="71.070065" y="43.119728" style="fill: #4c72b0"/>
    </g>
    <g clip-path="url(#p66156e7666)">
     <use xlink:href="#C0_0_30c47ec124" x="73.095855" y="42.996549" style="fill: #4c72b0"/>
    </g>
    <g clip-path="url(#p66156e7666)">
     <use xlink:href="#C0_0_30c47ec124" x="76.694475" y="38.472204" style="fill: #dd8452"/>
    </g>
   </g>
   <g id="PathCollection_2">
    <defs>
     <path id="C1_0_83369f95da" d="M 0 2.5 
C 0.663008 2.5 1.29895 2.236584 1.767767 1.767767 
C 2.236584 1.29895 2.5 0.663008 2.5 -0 
C 2.5 -0.663008 2.236584 -1.29895 1.767767 -1.767767 
C 1.29895 -2.236584 0.663008 -2.5 0 -2.5 
C -0.663008 -2.5 -1.29895 -2.236584 -1.767767 -1.767767 
C -2.236584 -1.29895 -2.5 -0.663008 -2.5 0 
C -2.5 0.663008 -2.236584 1.29895 -1.767767 1.767767 
C -1.29895 2.236584 -0.663008 2.5 0 2.5 
z
"/>
    </defs>
    <g clip-path="url(#p66156e7666)">
     <use xlink:href="#C1_0_83369f95da" x="131.048574" y="162.457999" style="fill: #4c72b0"/>
    </g>
    <g clip-path="url(#p66156e7666)">
     <use xlink:href="#C1_0_83369f95da" x="124.661763" y="176.642985" style="fill: #4c72b0"/>
    </g>
    <g clip-path="url(#p66156e7666)">
     <use xlink:href="#C1_0_83369f95da" x="128.37749" y="171.233067" style="fill: #4c72b0"/>
    </g>
    <g clip-path="url(#p66156e7666)">
     <use xlink:href="#C1_0_83369f95da" x="127.796129" y="154.831234" style="fill: #4c72b0"/>
    </g>
    <g clip-path="url(#p66156e7666)">
     <use xlink:href="#C1_0_83369f95da" x="125.765241" y="172.482434" style="fill: #4c72b0"/>
    </g>
    <g clip-path="url(#p66156e7666)">
     <use xlink:href="#C1_0_83369f95da" x="125.289327" y="160.339484" style="fill: #4c72b0"/>
    </g>
    <g clip-path="url(#p66156e7666)">
     <use xlink:href="#C1_0_83369f95da" x="123.520298" y="177.670011" style="fill: #4c72b0"/>
    </g>
    <g clip-path="url(#p66156e7666)">
     <use xlink:href="#C1_0_83369f95da" x="129.069607" y="153.047595" style="fill: #4c72b0"/>
    </g>
    <g clip-path="url(#p66156e7666)">
     <use xlink:href="#C1_0_83369f95da" x="132.872387" y="167.735168" style="fill: #4c72b0"/>
    </g>
    <g clip-path="url(#p66156e7666)">
     <use xlink:href="#C1_0_83369f95da" x="132.886851" y="170.198393" style="fill: #4c72b0"/>
    </g>
    <g clip-path="url(#p66156e7666)">
     <use xlink:href="#C1_0_83369f95da" x="130.886234" y="177.067999" style="fill: #4c72b0"/>
    </g>
    <g clip-path="url(#p66156e7666)">
     <use xlink:href="#C1_0_83369f95da" x="127.454432" y="174.950576" style="fill: #4c72b0"/>
    </g>
    <g clip-path="url(#p66156e7666)">
     <use xlink:href="#C1_0_83369f95da" x="131.619871" y="166.984018" style="fill: #4c72b0"/>
    </g>
    <g clip-path="url(#p66156e7666)">
     <use xlink:href="#C1_0_83369f95da" x="127.074899" y="181.816358" style="fill: #4c72b0"/>
    </g>
    <g clip-path="url(#p66156e7666)">
     <use xlink:href="#C1_0_83369f95da" x="124.287432" y="177.080564" style="fill: #4c72b0"/>
    </g>
    <g clip-path="url(#p66156e7666)">
     <use xlink:href="#C1_0_83369f95da" x="126.698062" y="179.237319" style="fill: #4c72b0"/>
    </g>
    <g clip-path="url(#p66156e7666)">
     <use xlink:href="#C1_0_83369f95da" x="125.05703" y="187.115925" style="fill: #4c72b0"/>
    </g>
    <g clip-path="url(#p66156e7666)">
     <use xlink:href="#C1_0_83369f95da" x="128.47317" y="181.237836" style="fill: #4c72b0"/>
    </g>
    <g clip-path="url(#p66156e7666)">
     <use xlink:href="#C1_0_83369f95da" x="127.431452" y="207.38058" style="fill: #4c72b0"/>
    </g>
    <g clip-path="url(#p66156e7666)">
     <use xlink:href="#C1_0_83369f95da" x="130.850103" y="200.494585" style="fill: #4c72b0"/>
    </g>
    <g clip-path="url(#p66156e7666)">
     <use xlink:href="#C1_0_83369f95da" x="131.795522" y="191.084181" style="fill: #4c72b0"/>
    </g>
    <g clip-path="url(#p66156e7666)">
     <use xlink:href="#C1_0_83369f95da" x="131.410101" y="197.583402" style="fill: #4c72b0"/>
    </g>
    <g clip-path="url(#p66156e7666)">
     <use xlink:href="#C1_0_83369f95da" x="128.491732" y="202.561203" style="fill: #4c72b0"/>
    </g>
    <g clip-path="url(#p66156e7666)">
     <use xlink:href="#C1_0_83369f95da" x="127.33179" y="218.88" style="fill: #4c72b0"/>
    </g>
    <g clip-path="url(#p66156e7666)">
     <use xlink:href="#C1_0_83369f95da" x="126.603243" y="191.958792" style="fill: #4c72b0"/>
    </g>
    <g clip-path="url(#p66156e7666)">
     <use xlink:href="#C1_0_83369f95da" x="122.588558" y="191.76759" style="fill: #4c72b0"/>
    </g>
    <g clip-path="url(#p66156e7666)">
     <use xlink:href="#C1_0_83369f95da" x="129.428208" y="201.66911" style="fill: #4c72b0"/>
    </g>
    <g clip-path="url(#p66156e7666)">
     <use xlink:href="#C1_0_83369f95da" x="128.637166" y="203.099299" style="fill: #4c72b0"/>
    </g>
    <g clip-path="url(#p66156e7666)">
     <use xlink:href="#C1_0_83369f95da" x="122.630631" y="198.290848" style="fill: #4c72b0"/>
    </g>
    <g clip-path="url(#p66156e7666)">
     <use xlink:href="#C1_0_83369f95da" x="127.125995" y="198.891768" style="fill: #4c72b0"/>
    </g>
    <g clip-path="url(#p66156e7666)">
     <use xlink:href="#C1_0_83369f95da" x="123.05226" y="205.796883" style="fill: #dd8452"/>
    </g>
   </g>
  </g>
 </g>
 <defs>
  <clipPath id="p66156e7666">
   <rect x="43.908438" y="7.2" width="111.6" height="221.76"/>
  </clipPath>
 </defs>
</svg>
